<svg id="Layer_1" enable-background="new 0 0 511.999 511.999" height="512" viewBox="0 0 511.999 511.999" width="512" xmlns="http://www.w3.org/2000/svg"><g><path d="m458.167 0v60.638h-404.334v-60.638h-30v436.995h30v-90.101h404.334v90.101h30v-436.995zm0 90.638v98.128h-404.334v-98.128zm-404.334 226.256v-98.128h404.334v98.128z" fill="#804231"/><path d="m458.167 0v60.638h-202.167v30h202.167v98.128h-202.167v30h202.167v98.128h-202.167v30h202.167v90.101h30v-436.995z" fill="#663325"/><path d="m0 421.995h511.998v90.004h-511.998z" fill="#582b1f"/><path d="m256 421.995h255.999v90.004h-255.999z" fill="#3c1b13"/><circle cx="256" cy="203.766" fill="#ffd422" r="36.579"/><circle cx="182.841" cy="203.766" fill="#ffd422" r="36.579"/><circle cx="329.158" cy="203.766" fill="#ffd422" r="36.579"/><circle cx="199.507" cy="75.638" fill="#e63950" r="36.579"/><circle cx="126.348" cy="75.638" fill="#e63950" r="36.579"/><circle cx="380.095" cy="75.638" fill="#e63950" r="36.579"/><g fill="#00dd80"><circle cx="329.158" cy="331.894" r="36.579"/><circle cx="256" cy="331.894" r="36.579"/><circle cx="402.317" cy="331.894" r="36.579"/><circle cx="131.904" cy="331.894" r="36.579"/></g><circle cx="329.158" cy="203.766" fill="#ff9f22" r="36.579"/><circle cx="380.095" cy="75.638" fill="#cc2e43" r="36.579"/><circle cx="329.158" cy="331.894" fill="#00aa95" r="36.579"/><circle cx="402.317" cy="331.894" fill="#00aa95" r="36.579"/><path d="m292.579 203.766c0-20.202-16.377-36.579-36.58-36.579v73.159c20.203-.001 36.58-16.378 36.58-36.58z" fill="#ff9f22"/><path d="m292.579 331.894c0-20.202-16.377-36.579-36.58-36.579v73.159c20.203-.001 36.58-16.378 36.58-36.58z" fill="#00aa95"/></g></svg>