<svg id="Capa_1" enable-background="new 0 0 512 512" height="512" viewBox="0 0 512 512" width="512" xmlns="http://www.w3.org/2000/svg"><g><path d="m451 482v30h-390v-60l30-30h330l-30 45 30 15z" fill="#ff9100"/><path d="m451 482v30h-165v-90h135l-30 45 30 15z" fill="#ff641a"/><path d="m91 422h330v60h-330z" fill="#e0f4ff"/><path d="m286 422h135v60h-135z" fill="#bbdcff"/><path d="m451 0v452h-330l-30-30v-391l30-31z" fill="#fdbf00"/><g fill="#ff9100"><path d="m286 0h165v452h-165z"/><path d="m211 301h150v30h-150z"/><path d="m211 361h150v30h-150z"/></g><g><path d="m361 136c0-19.501-12.599-36-30-42.299v-32.701h-30v30h-30v-30h-30v30h-30v30h30v90h-30v30h30v30h30v-30h30v30h30v-32.701c17.401-6.299 30-22.798 30-42.299 0-11.7-4.501-21.899-11.7-30 7.199-8.101 11.7-18.3 11.7-30zm-45 75h-45v-30h45c8.401 0 15 6.599 15 15s-6.599 15-15 15zm0-60h-45v-30h45c8.401 0 15 6.599 15 15s-6.599 15-15 15z" fill="#ff9100"/><path d="m349.3 166c7.2 8.101 11.7 18.3 11.7 30 0 19.501-12.599 36-30 42.299v32.701h-30v-30h-15v-30h30c8.401 0 15-6.599 15-15s-6.599-15-15-15h-30v-30h30c8.401 0 15-6.599 15-15s-6.599-15-15-15h-30v-30h15v-30h30v32.701c17.401 6.299 30 22.798 30 42.299 0 11.7-4.501 21.899-11.7 30z" fill="#ff641a"/></g><path d="m286 301h75v30h-75z" fill="#ff641a"/><path d="m286 361h75v30h-75z" fill="#ff641a"/><path d="m61 0h60v452h-60z" fill="#537983"/></g></svg>