<?xml version="1.0"?>
<svg xmlns="http://www.w3.org/2000/svg" xmlns:xlink="http://www.w3.org/1999/xlink" xmlns:svgjs="http://svgjs.com/svgjs" version="1.1" width="512" height="512" x="0" y="0" viewBox="0 0 24 24" style="enable-background:new 0 0 512 512" xml:space="preserve" class=""><g><g xmlns="http://www.w3.org/2000/svg"><g><path d="m2.5 24c-1.379 0-2.5-1.122-2.5-2.5s1.121-2.5 2.5-2.5 2.5 1.122 2.5 2.5-1.121 2.5-2.5 2.5z" fill="#1d83d4" data-original="#ffc107" style="" class=""/></g></g><g xmlns="http://www.w3.org/2000/svg"><g><path d="m21.5 5c-1.379 0-2.5-1.122-2.5-2.5s1.121-2.5 2.5-2.5 2.5 1.122 2.5 2.5-1.121 2.5-2.5 2.5z" fill="#1d83d4" data-original="#ffc107" style="" class=""/></g></g><g xmlns="http://www.w3.org/2000/svg"><g><path d="m21.5 24c-1.379 0-2.5-1.122-2.5-2.5s1.121-2.5 2.5-2.5 2.5 1.122 2.5 2.5-1.121 2.5-2.5 2.5z" fill="#1d83d4" data-original="#ffc107" style="" class=""/></g></g><g xmlns="http://www.w3.org/2000/svg"><g><path d="m2.5 5c-1.379 0-2.5-1.121-2.5-2.5s1.121-2.5 2.5-2.5 2.5 1.121 2.5 2.5-1.121 2.5-2.5 2.5z" fill="#1d83d4" data-original="#ffc107" style="" class=""/></g></g><g xmlns="http://www.w3.org/2000/svg"><g><path d="m2.5 0c-1.379 0-2.5 1.121-2.5 2.5s1.121 2.5 2.5 2.5z" fill="#1d83d4" data-original="#dea806" style="" class=""/></g></g><g xmlns="http://www.w3.org/2000/svg"><g><path d="m2.5 19c-1.379 0-2.5 1.121-2.5 2.5s1.121 2.5 2.5 2.5z" fill="#1d83d4" data-original="#dea806" style="" class=""/></g></g><g xmlns="http://www.w3.org/2000/svg"><g><path d="m21.5 0c-1.379 0-2.5 1.121-2.5 2.5s1.121 2.5 2.5 2.5z" fill="#1d83d4" data-original="#dea806" style="" class=""/></g></g><g xmlns="http://www.w3.org/2000/svg"><g><path d="m21.5 19c-1.379 0-2.5 1.121-2.5 2.5s1.121 2.5 2.5 2.5z" fill="#1d83d4" data-original="#dea806" style="" class=""/></g></g><g xmlns="http://www.w3.org/2000/svg"><g><path d="m12 21c-4.963 0-9-4.037-9-9s4.037-9 9-9 9 4.037 9 9-4.037 9-9 9z" fill="#64b5f6" data-original="#64b5f6" style="" class=""/></g></g><g xmlns="http://www.w3.org/2000/svg"><g><path d="m12 21c-4.963 0-9-4.037-9-9s4.037-9 9-9 9 4.037 9 9-4.037 9-9 9zm0-16.5c-4.136 0-7.5 3.364-7.5 7.5s3.364 7.5 7.5 7.5 7.5-3.364 7.5-7.5-3.364-7.5-7.5-7.5z" fill="#1d83d4" data-original="#2196f3" style="" class=""/></g></g><g xmlns="http://www.w3.org/2000/svg"><g><path d="m12 21c-.198 0-.396-.078-.544-.234-4.586-4.833-4.586-12.698 0-17.531.284-.301.759-.314 1.061-.028.3.285.313.76.027 1.06-4.046 4.266-4.046 11.203 0 15.469.285.3.273.774-.027 1.06-.146.136-.331.204-.517.204z" fill="#1d83d4" data-original="#2196f3" style="" class=""/></g></g><g xmlns="http://www.w3.org/2000/svg"><g><path d="m12 21c-.186 0-.371-.068-.517-.206-.3-.285-.313-.76-.027-1.06 4.046-4.266 4.046-11.203 0-15.469-.285-.3-.272-.774.027-1.06.301-.286.775-.272 1.061.028 4.586 4.833 4.586 12.698 0 17.531-.148.158-.346.236-.544.236z" fill="#1d83d4" data-original="#2196f3" style="" class=""/></g></g><g xmlns="http://www.w3.org/2000/svg"><g><path d="m19.94 10.5h-15.88c-.414 0-.75-.336-.75-.75s.336-.75.75-.75h15.88c.414 0 .75.336.75.75s-.336.75-.75.75z" fill="#1d83d4" data-original="#2196f3" style="" class=""/></g></g><g xmlns="http://www.w3.org/2000/svg"><g><path d="m19.94 15h-15.88c-.414 0-.75-.336-.75-.75s.336-.75.75-.75h15.88c.414 0 .75.336.75.75s-.336.75-.75.75z" fill="#1d83d4" data-original="#2196f3" style="" class=""/></g></g><g xmlns="http://www.w3.org/2000/svg"><g><path d="m8.363 15h-3.237c.934 2.132 2.83 3.748 5.137 4.297-.909-1.315-1.542-2.777-1.9-4.297zm3.637 0h-2.096c.398 1.479 1.096 2.887 2.096 4.115zm-8.644-.489c1.09 3.745 4.552 6.489 8.644 6.489-4.092 0-7.554-2.744-8.644-6.489zm4.746-4.011h-3.451c-.099.485-.151.987-.151 1.5s.052 1.015.151 1.5h3.452c-.115-.996-.115-2.004-.001-3zm3.898 0h-2.393c-.13.995-.13 2.005 0 3h2.393zm0-5.615c-.999 1.228-1.698 2.636-2.096 4.115h2.096v-4.115c0-.001 0 0 0 0zm-1.737-.182c-2.306.549-4.203 2.165-5.137 4.297h3.237c.358-1.52.991-2.982 1.9-4.297z" fill="#64b5f6" data-original="#579ed6" style="" class=""/></g></g><g xmlns="http://www.w3.org/2000/svg"><g><path d="m3.356 14.511c1.09 3.745 4.552 6.489 8.644 6.489-.002 0-.003 0-.005 0h-.001c-.001 0-.002 0-.003 0s-.001 0-.002 0-.002 0-.003 0h-.002c-.001 0-.002 0-.003 0s-.001 0-.002 0-.002 0-.003 0h-.002c-.001 0-.002 0-.003 0s-.001 0-.002 0-.002 0-.003 0h-.002c-.001 0-.002 0-.003 0s-.001 0-.002 0-.002 0-.003 0h-.001c-.001 0-.002 0-.003 0h-.001c-.001 0-.002 0-.004 0h-.001c-.001 0-.003 0-.004 0h-.001c-.167-.012-.33-.08-.461-.204-.017-.017-.034-.034-.049-.051-.431-.457-.821-.94-1.171-1.445-2.303-.552-4.2-2.168-5.134-4.3h-1.066c-.323 0-.598-.203-.704-.489zm-.032-4.908c-.211.763-.324 1.567-.324 2.397 0 .83.113 1.634.324 2.398-.009-.048-.014-.098-.014-.148 0-.414.336-.75.75-.75h.591c-.099-.485-.151-.987-.151-1.5s.052-1.015.151-1.5h-.591c-.414 0-.75-.336-.75-.75 0-.051.005-.1.014-.147zm8.657-6.603c-4.083.009-7.537 2.75-8.625 6.489.107-.286.381-.489.704-.489h1.067c.934-2.132 2.831-3.748 5.137-4.297.349-.505.739-.988 1.17-1.445.016-.018.032-.036.05-.052.14-.134.318-.202.497-.206z" fill="#1d83d4" data-original="#1d83d4" style="" class=""/></g></g><g xmlns="http://www.w3.org/2000/svg"><g><path d="m11.994 21c.001 0 .001 0 0 0zm-.005 0h.002c-.001 0-.001 0-.002 0zm-.004 0h.002zm-.005 0h.002c-.001 0-.001 0-.002 0zm-.004 0h.002zm-.005-.001h.002c-.001.001-.001 0-.002 0zm-.004 0h.002zm-.005 0h.002c-.001 0-.001 0-.002 0zm-.004 0h.001zm-.005 0c.001 0 .001 0 0 0zm-2.049-5.999h-1.541c.357 1.52.991 2.982 1.9 4.297.35.505.74.989 1.171 1.445-.251-.288-.247-.726.022-1.008.19-.2.372-.407.544-.619-.999-1.228-1.698-2.635-2.096-4.115zm-.297-4.5h-1.505c-.114.996-.114 2.004 0 3h1.504c-.129-.995-.129-2.005.001-3zm1.826-7.242c-.431.456-.821.94-1.17 1.445-.909 1.315-1.542 2.777-1.9 4.297h1.541c.398-1.479 1.097-2.887 2.096-4.115-.172-.212-.354-.418-.544-.619-.268-.283-.273-.719-.023-1.008z" fill="#1d83d4" data-original="#1d83d4" style="" class=""/></g></g><g xmlns="http://www.w3.org/2000/svg"><g><path d="m12 19.115c-.172.212-.354.419-.544.619-.269.282-.273.72-.022 1.008.015.018.032.035.049.051.131.124.294.192.461.204h.001.004.001.004.001.004.001.003.002.003.002.003.002.003.002.003.002.003.002.003.002.003.001.005v-1.882zm-.001-16.115c-.006 0-.012 0-.018 0-.179.004-.357.072-.498.206-.018.017-.034.034-.05.052-.25.288-.246.725.023 1.007.19.2.372.407.544.619v-1.884z" fill="#1d83d4" data-original="#1d83d4" style="" class=""/></g></g><g xmlns="http://www.w3.org/2000/svg"><g><path d="m12 9h-2.096-1.541-3.237-1.066c-.323 0-.597.203-.704.489-.013.036-.024.074-.032.114-.009.047-.014.096-.014.147 0 .414.336.75.75.75h.591 3.452 1.504 2.393z" fill="#1d83d4" data-original="#1d83d4" style="" class=""/></g></g><g xmlns="http://www.w3.org/2000/svg"><g><path d="m12 13.5h-2.393-1.505-3.451-.591c-.414 0-.75.336-.75.75 0 .051.005.1.015.148.008.039.019.077.032.114.105.285.38.488.703.488h1.067 3.237 1.541 2.095z" fill="#1d83d4" data-original="#1d83d4" style="" class=""/></g></g></g></svg>
