<svg height="512" viewBox="0 0 58 58" width="512" xmlns="http://www.w3.org/2000/svg"><g id="Page-1" fill="none" fill-rule="evenodd"><g id="058---Degree-Certificate" fill-rule="nonzero"><path id="Shape" d="m38 14h17c1.6568542 0 3 1.3431458 3 3v38c0 1.6568542-1.3431458 3-3 3h-52c-1.65685425 0-3-1.3431458-3-3v-38c0-1.6568542 1.34314575-3 3-3z" fill="#f8e8ab"/><path id="Shape" d="m48.000017 44.16-.000017 8.84c.0023626.4062651-.2413038.77358-.6165185.929371-.3752147.1557909-.807391.0690889-1.0934815-.219371l-1.58-1.59c-.3930079-.3899779-1.0269921-.3899779-1.42 0l-1.58 1.59c-.2860905.2884599-.7182668.3751619-1.0934815.219371-.3752147-.155791-.6188811-.5231059-.6165185-.929371l-.000017-8.84z" fill="#ba3a23"/><g fill="#a1693e"><path id="Shape" d="m17 21h-12c-.55228475 0-1-.4477153-1-1s.44771525-1 1-1h12c.5522847 0 1 .4477153 1 1s-.4477153 1-1 1z"/><path id="Shape" d="m53 21h-5c-.5522847 0-1-.4477153-1-1s.4477153-1 1-1h5c.5522847 0 1 .4477153 1 1s-.4477153 1-1 1z"/><path id="Shape" d="m15 53h-10c-.55228475 0-1-.4477153-1-1s.44771525-1 1-1h10c.5522847 0 1 .4477153 1 1s-.4477153 1-1 1z"/><path id="Shape" d="m23 29h-18c-.55228475 0-1-.4477153-1-1s.44771525-1 1-1h18c.5522847 0 1 .4477153 1 1s-.4477153 1-1 1z"/><path id="Shape" d="m28 37h-23c-.55228475 0-1-.4477153-1-1s.44771525-1 1-1h23c.5522847 0 1 .4477153 1 1s-.4477153 1-1 1z"/><path id="Shape" d="m23 45h-18c-.55228475 0-1-.4477153-1-1s.44771525-1 1-1h18c.5522847 0 1 .4477153 1 1s-.4477153 1-1 1z"/><path id="Shape" d="m9 33h-4c-.55228475 0-1-.4477153-1-1s.44771525-1 1-1h4c.55228475 0 1 .4477153 1 1s-.44771525 1-1 1z"/><path id="Shape" d="m28 33h-15c-.5522847 0-1-.4477153-1-1s.4477153-1 1-1h15c.5522847 0 1 .4477153 1 1s-.4477153 1-1 1z"/><path id="Shape" d="m28 29h-1c-.5522847 0-1-.4477153-1-1s.4477153-1 1-1h1c.5522847 0 1 .4477153 1 1s-.4477153 1-1 1z"/><path id="Shape" d="m15 41h-10c-.55228475 0-1-.4477153-1-1s.44771525-1 1-1h10c.5522847 0 1 .4477153 1 1s-.4477153 1-1 1z"/><path id="Shape" d="m28 41h-9c-.5522847 0-1-.4477153-1-1s.4477153-1 1-1h9c.5522847 0 1 .4477153 1 1s-.4477153 1-1 1z"/></g><path id="Shape" d="m43 4.5c.0126198.45727892-.2956379.86134645-.74.97l-1.26.34-3 .81-8.75 2.35c-.1642682.03998702-.3357318.03998702-.5 0l-8.75-2.35-4.26-1.15c-.4448894-.11149979-.7568951-.51135113-.7568951-.97s.3120057-.85850021.7568951-.97l13.01-3.5c.1642682-.03998702.3357318-.03998702.5 0l11.75 3.16 1.26.34c.4443621.10865355.7526198.51272108.74.97z" fill="#464f5e"/><path id="Shape" d="m38 6.62v7.38s-3 3-9 3-9-3-9-3v-7.38l8.75 2.35c.1642682.03998702.3357318.03998702.5 0z" fill="#393f4b"/><path id="Shape" d="m43.75 11.55c-.1839835.2793852-.4954809.4482694-.83.45-.1966104.0023152-.3889872-.0571467-.55-.17-.8570487-.5649645-1.3720237-1.5234947-1.37-2.55v-3.47l1.26-.34c.4443621-.10865355.7526198-.51272108.74-.97v4.78c.0001625.35850681.1805213.69292216.48.89.2206164.145718.3734668.3739343.4242339.6334108.0507672.2594764-.0048029.5284706-.1542339.7465892z" fill="#edc100"/><path id="Shape" d="m44 25c-4.7307728.0055666-8.8103942 3.3254357-9.7771864 7.9563703s1.4437922 9.3057526 5.7771864 11.2036297c2.5490716 1.1199766 5.4509284 1.1199766 8 0 4.3333942-1.8978771 6.7439786-6.5726951 5.7771864-11.2036297s-5.0464136-7.9508037-9.7771864-7.9563703z" fill="#e04c34"/><circle id="Oval" cx="44" cy="35" fill="#f1d24b" r="6"/></g></g></svg>